<?xml version="1.0" encoding="utf-8"?>
<!-- Generator: Adobe Illustrator 27.9.6, SVG Export Plug-In . SVG Version: 9.03 Build 54986)  -->
<svg version="1.1" id="Layer_1" xmlns="http://www.w3.org/2000/svg" xmlns:xlink="http://www.w3.org/1999/xlink" x="0px" y="0px"
	 viewBox="0 0 26 26" style="enable-background:new 0 0 26 26;" xml:space="preserve">
<g id="info">
</g>
<g id="icons">
	<path id="email" d="M21,3.8H5c-2.2,0-4,1.8-4,4v10c0,2.2,1.8,4,4,4h16c2.2,0,4-1.8,4-4v-10C25,5.6,23.2,3.8,21,3.8z M22.6,9.6
		l-7.9,5.3c-0.5,0.3-1.1,0.5-1.7,0.5s-1.2-0.2-1.7-0.5L3.4,9.6C3,9.3,2.9,8.7,3.2,8.2C3.5,7.8,4.1,7.7,4.6,8l7.9,5.3
		c0.3,0.2,0.8,0.2,1.1,0L21.5,8c0.5-0.3,1.1-0.2,1.4,0.3C23.1,8.7,23,9.3,22.6,9.6z"/>
</g>
</svg>
