<?xml version="1.0" encoding="utf-8"?>
<!-- Generator: Adobe Illustrator 27.9.6, SVG Export Plug-In . SVG Version: 9.03 Build 54986)  -->
<svg version="1.1" id="Layer_1" xmlns="http://www.w3.org/2000/svg" xmlns:xlink="http://www.w3.org/1999/xlink" x="0px" y="0px"
	 viewBox="0 0 145.7 121.9" style="enable-background:new 0 0 145.7 121.9;" xml:space="preserve">
<style type="text/css">
	.st0{filter:url(#AI_PixelPlay_1);}
	.st1{fill:#2E4A04;}
</style>
<filter  filterRes="50 50" filterUnits="objectBoundingBox" id="AI_PixelPlay_1">
	
		<animate  accumulate="none" additive="replace" attributeName="filterRes" begin="0s" calcMode="spline" dur="10s" fill="remove" repeatDur="indefinite" restart="always" values="1 1;20 15;200 200; 15 20;1 1 ">
		</animate>
	<feGaussianBlur  id="blur" in="SourceAlpha" result="blur" stdDeviation="7"></feGaussianBlur>
	<feComposite  in="blur" in2="SourceGraphic" operator="in" result="compositeOut"></feComposite>
	<feComposite  in="compositeOut" in2="SourceAlpha" k1="0" k2="1" k3="1" k4="0" operator="arithmetic" result="compositeOut1">
		</feComposite>
	<feMerge>
		<feMergeNode  in="compositeOut1"></feMergeNode>
	</feMerge>
</filter>
<g class="st0">
	<path class="st1" d="M40.5,31.8c2.3,20.4,3.3,41.1-2.1,61c-1.3,4.9-3,9.7-5.2,14.3c-2.6,5.8-6,11.6-13.3,11.7
		c-6.5,0.1-12.2-5-13.6-11.2c-1.2-5.4-0.1-10.5,1.3-15.6c1.4-4.8,3.4-9.2,5.2-13.6C16,70.8,19.8,63.1,24.3,56
		C32.6,42.9,41,29.5,53.2,19.5c7.4-6.2,16.9-12.7,26.1-13.3c2.9-0.5,7,0.5,7,4.3c0,1.8-1,3.2-1.8,4.3c-1.9,2.4-3.9,4.1-5.9,5.8
		c-5.3,4.7-11.8,8.9-16.1,14.3c-2.5,3.4-2.9,6.9-3,11.1c-0.2,4.2,1,8.7,6.1,7.7c3.2-0.8,5.2-2.3,7-5.7c1.9-3.6,3.5-8.2,5-12.8
		c1.6-4.7,2.9-9.6,4.9-14.6c0.4-1,1.9-0.7,2,0.3c0.1,2.5,0.7,5.2,1.6,7.6c2.8,8.7,9.5,16.3,18.4,18.8c6.2,1.7,14,0.7,19-3
		c4.9-3.5,11.6-2.3,15,2.5c3.5,4.9,2.3,11.6-2.5,15c-1.6,1.2-3.6,1.7-5.5,2.1c-9.7,1.9-18.9,0.7-27.4-3.3c-3-1.3-5.7-3.5-8-5.8
		c-9.3-9-12.6-21.7-12.6-34c0,0,2.1,0.1,2.1,0.1c1.7,7.7,2,15.7,0.7,23.5c-1.6,10-6.5,18.9-17.3,21c-11.5,2.2-20.4-6.7-19.7-18
		c0.6-15.5,7.6-21.1,20-28.5c4.2-2.7,9.3-5.2,12.4-8.9c0.1-0.1,0,0,0,0.2c-0.1,0.4,0.4,1.3,0.8,1.3c0,0-0.2-0.1-0.3-0.1
		C64.7,9.9,45.5,30.3,36.9,43c-3.4,4.8-6.5,9.9-9.6,14.9c-4.3,7-7.7,14.4-10.4,22.2c-1.7,4.4-3.2,8.9-4.2,13.3
		c-0.9,4.1-1.5,8.7-0.3,12.6c1.1,4.3,7.3,7.5,10.1,3.2c6.5-13.9,6.6-30.2,3.2-45c-2-8.7-5.2-17.1-9.6-24.9c-3.5-6.3-1.2-14.2,5-17.7
		C29.2,16.9,39.8,22.6,40.5,31.8L40.5,31.8z"/>
</g>
</svg>
